<?xml version="1.0" encoding="UTF-8" standalone="no"?>
<svg
   width="105.66408"
   height="125.33576"
   viewBox="0 0 105.66408 125.33576"
   version="1.1"
   id="svg36465"
   sodipodi:docname="logo_rescaled_for_pdf.svg"
   xml:space="preserve"
   inkscape:version="1.2.2 (b0a8486541, 2022-12-01)"
   xmlns:inkscape="http://www.inkscape.org/namespaces/inkscape"
   xmlns:sodipodi="http://sodipodi.sourceforge.net/DTD/sodipodi-0.dtd"
   xmlns="http://www.w3.org/2000/svg"
   xmlns:svg="http://www.w3.org/2000/svg"><defs
     id="defs36469" /><sodipodi:namedview
     id="namedview36467"
     pagecolor="#505050"
     bordercolor="#ffffff"
     borderopacity="1"
     inkscape:showpageshadow="0"
     inkscape:pageopacity="0"
     inkscape:pagecheckerboard="1"
     inkscape:deskcolor="#505050"
     showgrid="false"
     inkscape:zoom="2.4492188"
     inkscape:cx="126.36682"
     inkscape:cy="173.93301"
     inkscape:window-width="2560"
     inkscape:window-height="1411"
     inkscape:window-x="0"
     inkscape:window-y="0"
     inkscape:window-maximized="1"
     inkscape:current-layer="svg36465" /><circle
     id="Ellipse_267"
     data-name="Ellipse 267"
     cx="67.362595"
     cy="67.832016"
     r="37.609303"
     fill="#ffffff"
     style="fill:#ffffff;fill-opacity:1;stroke-width:0.365139" /><path
     id="Union_6"
     style="fill:#ffffff;fill-opacity:1;stroke:#000000;stroke-width:1.38005;stroke-dasharray:none;stroke-opacity:1"
     d="m 64.885878,20.839557 c -28.16964,-4.05029 -53.38947,17.80276 -53.38943,46.2621 0.0282,25.800881 20.93689,46.709603 46.73777,46.737773 24.51895,2.6e-4 44.869962,-18.946992 46.619172,-43.403453 1.7492,-24.45646 -15.698103,-46.10717 -39.967512,-49.59642 z m -6.63882,16.42056 c 0.0961,0.003 0.1911,0.0221 0.28098,0.0563 1.46202,0.43963 2.76405,0.72856 4.27755,1.03053 0.21433,0.073 0.32643,0.14682 0.36514,0.24176 0.0262,0.12163 -3.7e-4,0.24868 -0.0735,0.34945 -0.2932,1.17866 -0.58602,2.38963 -0.8836,3.6143 -0.29321,1.21737 -0.58674,2.43343 -0.88432,3.61501 0.006,0.20514 -0.0445,0.40797 -0.14621,0.58622 0.59336,0.15081 1.23308,0.30206 1.87134,0.45286 0.61672,0.1435 1.23368,0.28969 1.81571,0.43574 0.0982,0 0.19308,-0.13389 0.2924,-0.26315 0.0442,-0.0642 0.0928,-0.12519 0.14548,-0.18257 0.39691,-1.70739 0.8497,-3.57017 1.47482,-5.60545 0.14642,-0.59079 0.2935,-1.17713 0.4443,-1.76793 0,-0.22456 0.0867,-0.34945 0.23749,-0.34945 0.0709,0.003 0.14019,0.0224 0.20253,0.0563 0.83654,0.25012 1.65896,0.45254 2.5353,0.66395 0.65542,0.15957 1.33247,0.32387 2.03536,0.51776 0.0571,10e-4 0.11058,0.0281 0.1462,0.0727 0.036,0.0465 0.0916,0.0737 0.15047,0.0735 -0.4053,1.75047 -0.81903,3.40335 -1.21594,5.00996 l -0.11196,0.44429 c -0.12748,0.7542 -0.32518,1.49483 -0.5905,2.21224 -0.15117,0.45277 0.0167,0.59063 0.44358,0.73669 l 4.86448,2.21223 c 1.51469,0.89283 2.82171,2.09822 3.83396,3.53585 1.22468,2.04369 1.52187,4.37311 0.88361,6.92908 -0.37938,1.40141 -0.93937,3.00612 -2.21152,4.27826 -0.93151,0.8627 -2.03733,1.51544 -3.24275,1.91413 -0.0676,0.006 -0.13346,0.0255 -0.19398,0.0563 -0.11119,0.05 -0.23114,0.0776 -0.35301,0.0813 l -0.0435,0.009 c 0.29758,0.22566 0.59111,0.40939 0.88432,0.5905 0.2932,0.18111 0.5903,0.36702 0.88788,0.59121 1.71039,1.2231 2.95679,2.98877 3.53658,5.00996 0.27423,1.67273 0.17437,3.38544 -0.2924,5.01496 -0.68098,2.38034 -1.47423,4.01487 -2.65582,5.454971 -1.51936,1.8228 -3.6865,2.98524 -6.04547,3.24275 -1.06012,0.14869 -2.12947,0.22185 -3.19996,0.21894 -1.94038,-0.0261 -3.87609,-0.19752 -5.79087,-0.51276 -0.0986,-0.0339 -0.20173,-0.0529 -0.30595,-0.0563 -0.27166,0 -0.46812,0.16801 -0.57766,0.49992 -0.29759,1.17867 -0.59221,2.39473 -0.88432,3.61502 -0.29759,1.21153 -0.59578,2.43211 -0.88789,3.60931 l -0.0214,0.0863 c -0.0818,0.33629 -0.12547,0.5042 -0.3409,0.5042 -0.18132,-0.0173 -0.35811,-0.0668 -0.52203,-0.1462 -0.6682,-0.1508 -1.38439,-0.33583 -2.07815,-0.52132 -0.68099,-0.17672 -1.3884,-0.36742 -2.0482,-0.51347 -0.2158,-0.0734 -0.33178,-0.1422 -0.37085,-0.23677 -0.0391,-0.0946 -2.8e-4,-0.20293 0.0727,-0.35373 0.58204,-2.46651 1.18191,-5.01031 1.91912,-7.3691 0.002,-0.0722 0.009,-0.14422 0.0214,-0.21538 0.0256,-0.16358 0.0431,-0.27179 -0.16831,-0.37512 l -0.40507,-0.0991 c -1.03042,-0.25852 -2.09977,-0.52631 -3.27698,-0.78519 h -0.005 v 0.004 c -0.15227,0.66419 -0.33665,1.33654 -0.51776,1.98758 -0.18111,0.65105 -0.37099,1.32411 -0.51704,1.9883 -0.15117,0.67697 -0.34082,1.36217 -0.52631,2.03037 -0.176,0.63826 -0.35887,1.29803 -0.50492,1.94907 -0.0172,0.0347 -0.0299,0.0695 -0.0471,0.0998 -0.0734,0.16066 -0.11653,0.25531 -0.27172,0.25531 -0.0929,-0.005 -0.18443,-0.0242 -0.27171,-0.0563 -1.44011,-0.43561 -2.90615,-0.72896 -4.32033,-1.01341 l -0.0999,-0.0214 c -0.21579,-0.0734 -0.33214,-0.14693 -0.37084,-0.23749 -0.0266,-0.12162 1.1e-4,-0.24883 0.0735,-0.34944 0.57764,-2.45812 1.1768,-4.99999 1.9184,-7.37339 0.006,-0.0676 0.0255,-0.133461 0.0563,-0.193981 0.0571,-0.12454 0.088,-0.25952 0.0906,-0.39651 l -0.2924,-0.0777 c -3.23805,-0.84091 -6.58812,-1.71572 -10.02919,-2.5738 0.1508,-0.30197 0.26302,-0.56553 0.37512,-0.82441 0.10662,-0.25012 0.21552,-0.5085 0.36158,-0.79732 0.58202,-1.30719 1.182,-2.65675 1.626,-3.83396 0.14679,-0.444 0.29778,-0.4443 0.70746,-0.4443 h 0.0257 c 1.06453,0.31852 2.14934,0.56488 3.24703,0.73741 0.19116,0.0509 0.3884,0.0754 0.58622,0.0727 0.82904,0.0418 1.54462,-0.5752 1.62529,-1.40137 l 0.15975,-0.62473 c 1.82569,-7.18811 3.72018,-14.62195 5.44071,-22.07735 0.26311,-1.29291 -0.50331,-2.57307 -1.76721,-2.95177 -1.04357,-0.34944 -2.0653,-0.59936 -3.07016,-0.8451 -0.25852,-0.065 -0.51297,-0.12507 -0.76309,-0.1897 -0.16395,0 -0.27559,-0.0437 -0.32306,-0.12552 -0.0465,-0.1022 -0.0368,-0.22121 0.0257,-0.31451 0.22858,-0.82813 0.45343,-1.69975 0.67251,-2.53956 0.18111,-0.69011 0.3665,-1.40607 0.8085,-1.65619 0.442,-0.25012 1.15374,-0.0858 1.83947,0.0694 0.79746,0.18111 1.62128,0.36057 2.43188,0.58622 0.81061,0.22566 1.63286,0.40793 2.43616,0.5905 0.79345,0.18111 1.617,0.37213 2.42761,0.59121 0.0897,0.0339 0.18441,0.0527 0.28027,0.0556 0.24574,0 0.3538,-0.18518 0.45714,-0.49993 0.27604,-1.1772 0.55611,-2.32395 0.83654,-3.47524 0.31073,-1.28492 0.62102,-2.57023 0.93139,-3.89386 0.10808,-0.31475 0.21577,-0.50064 0.45713,-0.50064 z m 0.80159,16.53893 c -0.23935,2e-5 -0.35215,0.16912 -0.46498,0.50706 -0.75109,3.15406 -1.50219,6.15768 -2.40335,9.31175 -0.15008,0.30051 3.6e-4,0.45041 0.30095,0.60048 0.60065,0.15007 1.05103,0.30065 1.65168,0.45072 2.25291,0.30051 4.20518,0.75096 6.60816,0.75096 0.55842,-0.0531 1.11124,-0.15403 1.6524,-0.30167 2.88978,-0.63473 4.32999,-3.89455 2.85336,-6.45839 -0.75109,-1.35101 -2.1021,-2.25271 -3.45385,-2.85336 -2.10283,-0.90007 -4.20514,-1.3502 -6.45768,-1.95121 -0.11264,-0.0375 -0.2069,-0.0564 -0.28669,-0.0563 z m -2.99028,14.72394 c -0.19263,-3.1e-4 -0.21995,0.16488 -0.32949,0.49351 -0.29758,1.47479 -0.73721,2.80275 -1.03479,4.27754 -0.58642,2.06668 -1.03094,4.12657 -1.62173,6.33858 0.11245,0.0156 0.21695,0.0668 0.2981,0.1462 2.35879,0.5908 4.86389,1.32876 7.3691,1.47482 0.59372,0.0519 1.1713,0.0848 1.73726,0.0863 1.1148,0.0214 2.22449,-0.15605 3.27698,-0.52417 2.79696,-0.88364 3.98036,-4.57029 2.35914,-6.92908 -0.73722,-1.18123 -1.91934,-1.91931 -3.09655,-2.65653 -2.65602,-1.4748 -5.75206,-2.06074 -8.70129,-2.65154 -0.11009,-0.0371 -0.19253,-0.0555 -0.25673,-0.0556 z"
     sodipodi:nodetypes="cccscccccccccccccccccccccccccccccccccsccccccccccscccccsccccccccsccccccccccccccccccsccccccccccccccscccccccscccccccccssccccccccccs" /><path
     style="fill:#000000;fill-opacity:1;stroke:#ffffff;stroke-width:1.38022;stroke-linecap:butt;stroke-linejoin:miter;stroke-dasharray:none;stroke-opacity:1"
     d="m 28.080438,106.59716 c 0.0661,-1.55627 1.06788,-2.71342 -0.7838,-3.90756 -1.85168,-1.19414 -3.76341,-0.77332 -4.46629,-0.61786 -0.70289,0.15546 -2.19522,1.92466 -2.6075,3.72271 -0.41226,1.79803 0.40881,3.64704 0.40881,3.64704 0,0 0.46532,0.2563 0.19424,-0.61219 -0.27108,-0.86848 -2.33493,-3.79849 -3.39791,-4.99466 -1.06298,-1.19616 -1.91364,-1.59966 -1.54557,-2.23213 0.36807,-0.63248 0.57914,-3.865532 0.52102,-4.128292 -0.0581,-0.26277 -0.55713,-1.73437 -1.37032,-1.56198 -0.81319,0.17238 -0.79069,-0.0782 -0.83892,0.17807 -0.0482,0.25628 0.45508,1.08416 0.50132,1.58754 0.0462,0.50336 0.26166,2.546322 -0.0693,2.862882 -0.33093,0.31656 -0.64676,0.64632 -0.98052,0.34412 -0.33376,-0.3022 -1.0181,-0.8001 -1.42407,-1.450912 -5.0946983,-4.57986 -6.2639673,-6.48338 -1.59188,-1.15842 0.41109,0.51532 0.66482,0.8483 0.65915,1.36949 -0.006,0.521192 -0.22942,0.918962 0.74619,1.369072 -9.5078893,5.19264 -0.59216,-8.331812 2.78568,6.15042 0.45366,0.4078 -0.39959,1.23788 0.51148,3.20926 0.91106,1.97137 -1.26869,2.41335 1.30588,4.26992 2.57456,1.85658 5.75856,1.17979 7.41664,-0.9063 1.65807,-2.08609 4.02565,-7.14024 4.02565,-7.14024 z"
     id="path42693"
     sodipodi:nodetypes="cssscsssssssssccsccssscc" /><path
     id="path39035"
     style="opacity:1;fill:#000000;fill-opacity:1;stroke:#ffffff;stroke-width:1.38022;stroke-linecap:butt;stroke-linejoin:miter;stroke-dasharray:none;stroke-opacity:1"
     d="m 65.495798,0.69567711 c -3.41994,-0.16333 -4.47538,3.12925999 -4.99,3.67705999 -0.51461,0.54781 -3.08773,0.54408 -7.43614,0.27386 -4.3484,-0.27022 -11.06485,4.16903 -12.28064,5.8094099 -1.21579,1.64039 -8.45454,7.46966 -8.45454,7.46966 l -3.19353,3.60432 c 0,0 -1.55154,1.62697 -2.07673,2.73498 -0.23233,0.49014 -0.42449,1.14784 -0.61974,2.09241 -1.47997,1.99412 -5.08669,6.83151 -6.11893,7.74066 -1.24122,1.09323 -9.40938,10.7034 -10.9106603,13.28406 -1.501279,2.58067 -8.95796199,13.72285 -8.71911799,24.30456 0.238845,10.5817 3.24424099,24.877181 7.36339799,29.956363 4.1191503,5.07918 20.6227203,15.1828 26.2358003,16.09535 5.61307,0.91256 19.1248,6.75127 19.85799,6.89485 0.73318,0.14358 1.11078,-0.60645 0.68463,-1.35929 -0.42615,-0.75284 -6.87034,-5.77283 -9.48077,-7.40975 -2.61043,-1.63692 -9.00307,-4.83946 -11.07612,-6.55681 -2.07304,-1.71734 -6.64168,-6.62089 -7.75777,-9.10208 -1.11609,-2.481212 -3.22164,-4.044992 -2.97246,-9.958602 0.24919,-5.913611 2.85103,-11.658791 3.09227,-12.596571 0.24124,-0.93778 0.75496,-6.19507 0.13408,-8.60501 -0.62089,-2.40995 -1.42425,-8.04334 0.21038,-9.7475 1.63462,-1.70415 6.46885,-4.96355 9.16912,-8.8646 1.37925,-2.02851 2.12704,-3.99879 3.70635,-5.17753 0.56792,-2.30198 5.29824,-5.3451 6.89195,-6.81072 1.5937,-1.46561 8.79834,-3.61308 9.55708,-3.70559 0.75874,-0.0925 8.76412,-3.33932 10.58902,-4.79672 1.8249,-1.4574 8.41198,-3.32107 12.56663,-4.37454 4.15464,-1.05346 9.407679,-3.86983 10.961299,-5.17898 1.55361,-1.30914 -0.36871,-2.33132 -0.36871,-2.33132 0,0 0.65019,-2.23472 0.88503,-3.10154 0.23485,-0.86683 -2.29876,-3.19513 -3.50875,-4.26543 -1.20999,-1.0702899 -8.719529,-1.8697799 -12.234999,-2.6857599 -3.51548,-0.81598 -2.04027,-3.54462 -2.96676,-5.31377 -0.92649,-1.76914999 -3.31873,-1.83208999 -6.73866,-1.99542999 z"
     sodipodi:nodetypes="ssssccscssssssssssssssccssssscsssss" /><path
     style="fill:#ffffff;fill-opacity:1;stroke:none;stroke-width:0.365139px;stroke-linecap:butt;stroke-linejoin:miter;stroke-opacity:1"
     d="m 60.250838,17.157807 c 0,0 2.94803,-1.84514 5.97714,-2.17514 3.02912,-0.33001 3.63283,-0.34511 3.63283,-0.34511 0,0 1.70859,3.17645 0.78497,4.97631 -0.92362,1.79985 -2.63544,4.13258 -5.20263,3.7431 -2.56719,-0.38948 -4.43094,-1.72084 -4.7237,-2.6703 -0.29276,-0.94946 -0.48772,-2.18784 -0.45955,-2.545 0.0281,-0.35716 -0.009,-0.98386 -0.009,-0.98386 z"
     id="path41223" /><path
     style="fill:#000000;fill-opacity:1;stroke:#000000;stroke-width:0.365139px;stroke-linecap:butt;stroke-linejoin:miter;stroke-opacity:1"
     d="m 29.459588,50.178137 c 1.50526,-0.40068 2.41877,-1.62866 3.98461,-0.0786 1.56585,1.5501 1.56781,3.5076 1.56781,4.22747 0,0.71988 -1.40517,2.55907 -3.07175,3.34991 -1.66658,0.79083 -6.33451,1.60725 -6.33451,1.60725 0,0 2.3345,-1.6178 3.24103,-1.54067 0.90653,0.0771 4.21311,1.45952 5.61061,2.2391 1.39749,0.77957 1.97517,1.52303 2.51323,1.02705 0.53807,-0.49597 3.64925,-1.40025 3.91836,-1.40025 0.26912,0 1.81375,0.16943 1.82105,1.00066 0.007,0.83122 0.24711,0.75515 0.007,0.85758 -0.23982,0.10243 -1.15686,-0.21021 -1.65833,-0.14665 -0.50148,0.0636 -2.54275,0.29441 -2.78037,0.6859 -0.23763,0.39149 -0.4914,0.77108 -0.12425,1.0317 0.36715,0.26062 1.00108,0.82129 1.72421,1.07714 0.72312,0.25584 4.51342,1.57896 4.91704,2.28247 0.40362,0.7035 1.35067,1.51787 0.6086,2.0092 -0.74207,0.49133 -1.12138,0.68893 -1.87085,-0.30838 -0.74947,-0.99732 -1.58799,-2.38904 -2.17993,-2.67915 -0.59194,-0.29011 -0.97186,-0.46593 -1.47952,-0.34785 -0.50766,0.11809 -0.84774,0.42247 -1.49792,-0.43292 -0.65017,-0.85538 -2.62845,-0.41534 -2.01997,0.62389 0.60849,1.03924 1.00627,2.5073 2.65712,3.85516 1.65083,1.34786 1.79746,1.8074 1.79746,2.77792 0,0.97052 0.93733,1.88553 0.0872,2.30906 -0.85015,0.42354 -1.31607,-0.69671 -1.55596,-1.2091 -0.2399,-0.51239 -0.12331,-2.01184 -0.25472,-2.2951 -0.13141,-0.28325 -2.28531,-1.68297 -2.80773,-2.6411 -0.52243,-0.95813 -1.0431,-2.37638 -1.6207,-2.63996 -0.57759,-0.26357 -0.2193,2.41586 -0.0637,3.3484 0.15564,0.93253 0.32121,0.66957 1.10191,2.6853 0.7807,2.01573 1.88033,3.88808 1.07712,4.79004 -0.80321,0.90196 -1.00087,0.95248 -1.25893,-0.0952 -0.25805,-1.04765 -0.21974,-0.41614 -0.62959,-2.5933 -0.40984,-2.17717 -1.49836,-3.57857 -1.67443,-4.65087 -0.17607,-1.07229 0.31113,-2.12074 -0.15874,-3.04632 -0.46987,-0.92559 -0.61701,-1.59589 -1.34355,0.52171 -0.72655,2.11761 0.5551,3.29337 -0.18092,3.93794 -0.73602,0.64457 -1.61945,2.11815 -1.1386,3.26248 0.48085,1.14432 -0.44476,1.70168 -0.44476,1.70168 0,0 -0.48867,-1.68584 -0.51505,-2.46425 -0.0264,-0.7784 0.26126,-2.69789 0.59582,-3.1771 0.33456,-0.47921 -0.0503,-2.32933 0.27338,-3.39603 0.32365,-1.06671 0.63398,-1.54531 0.13783,-1.9002 -0.49615,-0.35489 0.21024,-0.43931 -1.91136,-0.90315 -2.12161,-0.46383 -2.08242,1.75993 -4.45118,-0.35294 -2.36877,-2.11287 -2.39555,-5.3679 -0.71676,-7.43735 1.6788,-2.06945 6.10239,-5.47264 6.10239,-5.47264 z"
     id="path41963"
     sodipodi:nodetypes="cssscsssssssssssssssssssssssssssssssssscsssssssc" /><path
     style="fill:#000000;fill-opacity:1;stroke:#000000;stroke-width:0.365139px;stroke-linecap:butt;stroke-linejoin:miter;stroke-opacity:1"
     d="m 26.159688,107.62274 c -0.0662,-1.55628 -1.06788,-2.71342 0.7838,-3.90756 1.85167,-1.19414 3.76341,-0.77332 4.46629,-0.61786 0.70289,0.15546 2.19522,1.92466 2.60749,3.7227 0.41227,1.79804 0.20135,6.53213 0.20135,6.53213 0,0 -1.07547,-2.62879 -0.80439,-3.49727 0.27108,-0.86848 2.33493,-3.7985 3.39791,-4.99466 1.06297,-1.19617 0.96705,-0.96919 0.59898,-1.60166 -0.36807,-0.63248 0.13631,-3.667732 0.19443,-3.930492 0.0581,-0.26276 1.12244,-2.09134 1.93563,-1.91895 0.81319,0.17238 0.7907,-0.0782 0.83892,0.17807 0.0482,0.25628 -1.61726,1.73789 -1.6635,2.24127 -0.0462,0.503362 -0.38024,2.051762 -0.0493,2.368322 0.33094,0.31656 1.59335,0.0158 1.92711,-0.28636 0.33376,-0.3022 1.0181,-0.80009 1.42407,-1.45091 0.40597,-0.650802 0.94864,-2.054512 1.72271,-2.296672 0.77406,-0.24218 1.10906,-1.22959 1.42855,-0.39893 -0.60863,3.044302 -1.8928,-0.004 -1.94503,3.342342 0.006,0.52119 -0.0441,0.4833 -1.01969,0.93341 -0.97561,0.45011 -0.97318,2.47674 0.17294,2.10704 1.14612,-0.3697 1.35115,-0.17415 3.02372,-1.49496 1.67257,-1.3208 1.67065,-2.30031 2.61827,-2.09072 0.94762,0.20959 1.72127,-0.717252 2.13825,0.13614 0.44914,0.91922 -1.10164,1.22585 -1.65374,1.34942 -0.5521,0.12358 -1.23642,0.80763 -1.54137,0.87477 -0.30496,0.0671 -0.82251,1.60102 -1.87085,1.9042 -1.04834,0.30318 -2.54557,0.50529 -2.92766,1.01233 -0.38209,0.50705 0.88236,0.74279 1.8265,0.79221 0.94414,0.0494 0.8268,0.2377 2.65723,-0.91216 1.29953,-0.81634 2.22882,-2.39428 2.93604,-1.41524 0.70722,0.97903 -0.49531,1.20438 -1.32477,1.89441 -0.69983,0.58219 -0.23547,0.457 -1.15006,0.84863 -0.75114,0.32163 -1.62199,0.50529 -2.70701,0.44564 -1.08501,-0.0597 -1.15187,-0.24936 -2.15709,0.01 -1.00521,0.25889 -1.6727,0.59253 0.54612,0.89084 1.36896,0.18405 1.86994,-0.0811 2.95759,-0.24238 0.96778,-0.14356 1.2967,-0.83647 2.51786,-1.05884 1.22117,-0.22238 0.59794,-0.3126 1.40445,-0.30629 0,0 -0.93194,1.33676 -1.73294,1.46426 -0.76917,0.12244 -2.43443,0.83281 -2.99336,1.0036 -0.65355,0.19969 -1.06476,0.12908 -2.22657,0.0293 -1.11064,-0.0954 -2.06244,0.0389 -2.5161,0.44669 -0.45367,0.4078 -0.38354,-0.30015 -1.29461,1.67122 -0.91106,1.97137 1.26869,2.41335 -1.30588,4.26993 -2.57456,1.85657 -5.75856,1.17978 -7.41664,-0.90631 -1.65807,-2.08609 -4.02565,-7.14024 -4.02565,-7.14024 z"
     id="path42691"
     sodipodi:nodetypes="cssscsssssssssssccssssssssssssssssssscssssssscc" /></svg>
