<?xml version="1.0" encoding="UTF-8" standalone="no"?>
<svg
   width="289.38052"
   height="343.25507"
   viewBox="0 0 289.38052 343.25507"
   version="1.1"
   id="svg36465"
   sodipodi:docname="logoWithoutGecko.svg"
   xml:space="preserve"
   inkscape:version="1.2.2 (b0a8486, 2022-12-01)"
   xmlns:inkscape="http://www.inkscape.org/namespaces/inkscape"
   xmlns:sodipodi="http://sodipodi.sourceforge.net/DTD/sodipodi-0.dtd"
   xmlns="http://www.w3.org/2000/svg"
   xmlns:svg="http://www.w3.org/2000/svg"><defs
     id="defs36469" /><sodipodi:namedview
     id="namedview36467"
     pagecolor="#505050"
     bordercolor="#ffffff"
     borderopacity="1"
     inkscape:showpageshadow="0"
     inkscape:pageopacity="0"
     inkscape:pagecheckerboard="1"
     inkscape:deskcolor="#505050"
     showgrid="false"
     inkscape:zoom="1.2246094"
     inkscape:cx="184.14035"
     inkscape:cy="183.73205"
     inkscape:window-width="1344"
     inkscape:window-height="456"
     inkscape:window-x="0"
     inkscape:window-y="25"
     inkscape:window-maximized="0"
     inkscape:current-layer="svg36465" /><circle
     id="Ellipse_267"
     data-name="Ellipse 267"
     cx="184.48489"
     cy="185.77048"
     r="103"
     fill="#ffffff"
     style="fill:#ffffff;fill-opacity:1" /><path
     id="Union_6"
     style="fill:#ffffff;fill-opacity:1;stroke:#000000;stroke-width:3.77953;stroke-dasharray:none;stroke-opacity:1"
     d="M 177.70194,57.072981 C 100.55418,45.980498 31.48503,105.82911 31.48515,183.77024 c 0.0772,70.66046 57.33953,127.92284 127.99999,128 67.14965,7.1e-4 122.88464,-51.88982 127.67517,-118.86834 C 291.95083,125.92337 244.16817,66.628929 177.70194,57.072981 Z M 159.5203,102.04369 c 0.2633,0.008 0.52337,0.0605 0.76953,0.15429 4.004,1.204 7.56985,1.99527 11.71484,2.82227 0.587,0.2 0.894,0.40211 1,0.66211 0.0719,0.3331 -0.001,0.68105 -0.20117,0.95703 -0.803,3.228 -1.60492,6.54444 -2.41992,9.89844 -0.803,3.33399 -1.60688,6.66439 -2.42187,9.90038 0.0167,0.56179 -0.12189,1.1173 -0.4004,1.60547 1.625,0.413 3.37701,0.82723 5.125,1.24023 1.689,0.393 3.37866,0.79336 4.97266,1.19336 0.269,0 0.52878,-0.3667 0.80078,-0.7207 0.12097,-0.17577 0.25411,-0.34285 0.39844,-0.5 1.087,-4.67599 2.32706,-9.77756 4.03906,-15.35156 0.401,-1.61799 0.8038,-3.22379 1.2168,-4.84179 0,-0.615 0.23739,-0.95703 0.65039,-0.95703 0.19424,0.008 0.38396,0.0613 0.55469,0.15429 2.291,0.685 4.54336,1.23936 6.94336,1.81836 1.795,0.437 3.64922,0.88697 5.57422,1.41797 0.15632,0.004 0.30285,0.077 0.40039,0.19922 0.0987,0.1274 0.25096,0.20173 0.41211,0.20117 -1.11,4.794 -2.24308,9.32071 -3.33008,13.72071 l -0.30664,1.21678 c -0.34913,2.06551 -0.89055,4.09386 -1.61719,6.0586 -0.414,1.24 0.0458,1.61757 1.21484,2.01757 l 13.32227,6.0586 c 4.14826,2.44519 7.72776,5.74637 10.5,9.68359 3.354,5.597 4.16792,11.97657 2.41992,18.97656 -1.039,3.838 -2.57264,8.2328 -6.05664,11.7168 -2.55113,2.36266 -5.57961,4.15031 -8.88086,5.24219 -0.18525,0.0173 -0.36553,0.0697 -0.53125,0.1543 -0.30452,0.13697 -0.63304,0.21263 -0.9668,0.22265 l -0.11914,0.0254 c 0.815,0.618 1.61888,1.12119 2.42188,1.61719 0.803,0.496 1.61664,1.00514 2.43164,1.61914 4.68421,3.34968 8.0977,8.18528 9.68555,13.7207 0.75105,4.58106 0.47757,9.27164 -0.80079,13.73438 -1.86499,6.51899 -4.03744,10.99546 -7.27343,14.93945 -4.16106,4.99207 -10.09616,8.17561 -16.55664,8.88086 -2.90333,0.40721 -5.83194,0.60759 -8.76368,0.59961 -5.3141,-0.0715 -10.61538,-0.54095 -15.85937,-1.4043 -0.27008,-0.0928 -0.55248,-0.14476 -0.83789,-0.15429 -0.744,0 -1.28203,0.46014 -1.58203,1.36914 -0.815,3.22799 -1.62188,6.55839 -2.42188,9.90039 -0.815,3.31799 -1.63164,6.66077 -2.43164,9.88476 l -0.0586,0.23633 c -0.224,0.921 -0.3436,1.38086 -0.9336,1.38086 -0.49659,-0.0473 -0.98075,-0.18291 -1.42968,-0.40039 -1.83,-0.413 -3.79141,-0.91973 -5.69141,-1.42773 -1.865,-0.484 -3.80238,-1.00625 -5.60937,-1.40625 -0.591,-0.201 -0.90863,-0.38944 -1.01563,-0.64844 -0.107,-0.259 -7.8e-4,-0.55575 0.19922,-0.96875 1.594,-6.75499 3.23686,-13.72165 5.25586,-20.18164 0.005,-0.1978 0.0244,-0.39496 0.0586,-0.58985 0.07,-0.448 0.11806,-0.74434 -0.46094,-1.02734 l -1.10937,-0.27148 c -2.822,-0.708 -5.75061,-1.4414 -8.97461,-2.15039 h -0.0137 v 0.0117 c -0.417,1.819 -0.92197,3.66037 -1.41797,5.44336 -0.496,1.783 -1.01602,3.62632 -1.41602,5.44532 -0.414,1.85399 -0.9334,3.73054 -1.4414,5.56054 -0.482,1.748 -0.98281,3.5549 -1.38281,5.33789 -0.047,0.095 -0.0819,0.19044 -0.12891,0.27344 -0.201,0.44 -0.31914,0.69922 -0.74414,0.69922 -0.25432,-0.0143 -0.50511,-0.0663 -0.74414,-0.1543 -3.944,-1.193 -7.95904,-1.99639 -11.83203,-2.77539 l -0.27344,-0.0586 c -0.591,-0.201 -0.90963,-0.40239 -1.01563,-0.65039 -0.0729,-0.3331 3.2e-4,-0.68148 0.20118,-0.95703 1.58199,-6.732 3.2229,-13.69337 5.2539,-20.19336 0.0173,-0.18525 0.0697,-0.36553 0.1543,-0.53125 0.15644,-0.34109 0.24088,-0.71076 0.24805,-1.08594 l -0.80079,-0.21289 c -8.86799,-2.303 -18.0428,-4.69883 -27.46679,-7.04883 0.413,-0.827 0.72034,-1.54881 1.02734,-2.25781 0.292,-0.685 0.59024,-1.3926 0.99024,-2.1836 1.59399,-3.57999 3.23712,-7.276 4.45312,-10.5 0.402,-1.21599 0.8155,-1.21679 1.9375,-1.21679 h 0.0703 c 2.91542,0.87231 5.88636,1.54702 8.89258,2.01953 0.52353,0.1395 1.06372,0.20653 1.60547,0.19922 2.27048,0.11445 4.23024,-1.57529 4.45117,-3.83789 l 0.4375,-1.71094 c 5,-19.68598 10.1884,-40.04491 14.90039,-60.46289 0.72056,-3.54089 -1.37842,-7.04683 -4.83984,-8.08398 -2.858,-0.957 -5.65621,-1.64146 -8.4082,-2.31446 -0.708,-0.178 -1.40485,-0.34253 -2.08985,-0.51953 -0.449,0 -0.75476,-0.11975 -0.88476,-0.34375 -0.12747,-0.27988 -0.10086,-0.60582 0.0703,-0.86133 0.626,-2.268 1.2418,-4.65508 1.8418,-6.95507 0.496,-1.88999 1.00372,-3.85079 2.21422,-4.53579 1.21049,-0.685 3.15973,-0.23491 5.03773,0.19009 2.184,0.496 4.44016,0.98747 6.66016,1.60547 2.21999,0.618 4.47187,1.11719 6.67187,1.61719 2.173,0.496 4.42844,1.01914 6.64844,1.61914 0.24566,0.0929 0.50505,0.14441 0.76758,0.15234 0.673,0 0.96895,-0.50714 1.25195,-1.36914 0.756,-3.224 1.52302,-6.36458 2.29102,-9.51758 0.85099,-3.51899 1.70078,-7.03906 2.55078,-10.66406 0.296,-0.862 0.59095,-1.37109 1.25195,-1.37109 z m 2.19531,45.29491 c -0.6555,5e-5 -0.96444,0.46317 -1.27344,1.38867 -2.05699,8.63799 -4.11403,16.86396 -6.58203,25.50195 -0.411,0.823 0.001,1.23354 0.82422,1.64454 1.645,0.41099 2.87844,0.82337 4.52344,1.23437 6.16999,0.823 11.51666,2.05664 18.09766,2.05664 1.52932,-0.14545 3.04333,-0.42185 4.52539,-0.82617 7.9142,-1.73833 11.85848,-10.66595 7.81445,-17.6875 -2.057,-3.7 -5.75699,-6.16946 -9.45899,-7.81445 -5.75899,-2.465 -11.51655,-3.69776 -17.68554,-5.34375 -0.3085,-0.10275 -0.56666,-0.15432 -0.78516,-0.1543 z m -8.18945,40.32422 c -0.52753,-8.5e-4 -0.60235,0.45156 -0.90235,1.35156 -0.81499,4.039 -2.01898,7.67585 -2.83398,11.71484 -1.606,5.66 -2.82341,11.30138 -4.44141,17.35938 0.30799,0.0426 0.59416,0.18296 0.81641,0.40039 6.45999,1.618 13.32065,3.63906 20.18164,4.03906 1.626,0.142 3.20782,0.23233 4.75781,0.23633 3.05308,0.0587 6.09218,-0.42739 8.97461,-1.43555 7.66,-2.41999 10.90094,-12.51657 6.46094,-18.97656 -2.019,-3.235 -5.25647,-5.25639 -8.48047,-7.27539 -7.27399,-4.039 -15.75308,-5.64372 -23.83008,-7.26172 -0.3015,-0.1015 -0.52728,-0.15206 -0.70312,-0.15234 z"
     sodipodi:nodetypes="cccscccccccccccccccccccccccccccccccccsccccccccccscccccsccccccccsccccccccccccccccccsccccccccccccccscccccccscccccccccssccccccccccs" /><path
     style="fill:#ffffff;fill-opacity:1;stroke:none;stroke-width:1px;stroke-linecap:butt;stroke-linejoin:miter;stroke-opacity:1"
     d="m 165.00802,46.989818 c 0,0 8.07372,-5.053257 16.36951,-5.957031 8.29579,-0.903773 9.94916,-0.945144 9.94916,-0.945144 0,0 4.67928,8.699303 2.14978,13.628538 -2.5295,4.929236 -7.21763,11.317843 -14.24835,10.251175 -7.03072,-1.066668 -12.13494,-4.712838 -12.93672,-7.313104 -0.80179,-2.600267 -1.33571,-5.991805 -1.25856,-6.969953 0.0771,-0.978148 -0.0248,-2.694481 -0.0248,-2.694481 z"
     id="path41223" /></svg>
