<?xml version="1.0" encoding="UTF-8" standalone="no"?>
<svg
   width="289.38052"
   height="343.25507"
   viewBox="0 0 289.38052 343.25507"
   version="1.1"
   id="svg36465"
   sodipodi:docname="BTC.svg"
   xml:space="preserve"
   inkscape:version="1.2.2 (b0a8486541, 2022-12-01)"
   xmlns:inkscape="http://www.inkscape.org/namespaces/inkscape"
   xmlns:sodipodi="http://sodipodi.sourceforge.net/DTD/sodipodi-0.dtd"
   xmlns="http://www.w3.org/2000/svg"
   xmlns:svg="http://www.w3.org/2000/svg"><defs
     id="defs36469" /><sodipodi:namedview
     id="namedview36467"
     pagecolor="#505050"
     bordercolor="#ffffff"
     borderopacity="1"
     inkscape:showpageshadow="0"
     inkscape:pageopacity="0"
     inkscape:pagecheckerboard="1"
     inkscape:deskcolor="#505050"
     showgrid="false"
     inkscape:zoom="1.2246094"
     inkscape:cx="178.83253"
     inkscape:cy="307.85326"
     inkscape:window-width="2560"
     inkscape:window-height="1411"
     inkscape:window-x="0"
     inkscape:window-y="0"
     inkscape:window-maximized="1"
     inkscape:current-layer="svg36465" /><circle
     id="Ellipse_267"
     data-name="Ellipse 267"
     cx="184.48489"
     cy="185.77048"
     r="103"
     fill="#ffffff"
     style="fill:#ffffff;fill-opacity:1" /><path
     id="Union_6"
     style="fill:#ffffff;fill-opacity:1;stroke:#000000;stroke-width:3.77953;stroke-dasharray:none;stroke-opacity:1"
     d="M 177.70194,57.072981 C 100.55418,45.980498 31.48503,105.82911 31.48515,183.77024 c 0.0772,70.66046 57.33953,127.92284 127.99999,128 67.14965,7.1e-4 122.88464,-51.88982 127.67517,-118.86834 C 291.95083,125.92337 244.16817,66.628929 177.70194,57.072981 Z M 159.5203,102.04369 c 0.2633,0.008 0.52337,0.0605 0.76953,0.15429 4.004,1.204 7.56985,1.99527 11.71484,2.82227 0.587,0.2 0.894,0.40211 1,0.66211 0.0719,0.3331 -0.001,0.68105 -0.20117,0.95703 -0.803,3.228 -1.60492,6.54444 -2.41992,9.89844 -0.803,3.33399 -1.60688,6.66439 -2.42187,9.90038 0.0167,0.56179 -0.12189,1.1173 -0.4004,1.60547 1.625,0.413 3.37701,0.82723 5.125,1.24023 1.689,0.393 3.37866,0.79336 4.97266,1.19336 0.269,0 0.52878,-0.3667 0.80078,-0.7207 0.12097,-0.17577 0.25411,-0.34285 0.39844,-0.5 1.087,-4.67599 2.32706,-9.77756 4.03906,-15.35156 0.401,-1.61799 0.8038,-3.22379 1.2168,-4.84179 0,-0.615 0.23739,-0.95703 0.65039,-0.95703 0.19424,0.008 0.38396,0.0613 0.55469,0.15429 2.291,0.685 4.54336,1.23936 6.94336,1.81836 1.795,0.437 3.64922,0.88697 5.57422,1.41797 0.15632,0.004 0.30285,0.077 0.40039,0.19922 0.0987,0.1274 0.25096,0.20173 0.41211,0.20117 -1.11,4.794 -2.24308,9.32071 -3.33008,13.72071 l -0.30664,1.21678 c -0.34913,2.06551 -0.89055,4.09386 -1.61719,6.0586 -0.414,1.24 0.0458,1.61757 1.21484,2.01757 l 13.32227,6.0586 c 4.14826,2.44519 7.72776,5.74637 10.5,9.68359 3.354,5.597 4.16792,11.97657 2.41992,18.97656 -1.039,3.838 -2.57264,8.2328 -6.05664,11.7168 -2.55113,2.36266 -5.57961,4.15031 -8.88086,5.24219 -0.18525,0.0173 -0.36553,0.0697 -0.53125,0.1543 -0.30452,0.13697 -0.63304,0.21263 -0.9668,0.22265 l -0.11914,0.0254 c 0.815,0.618 1.61888,1.12119 2.42188,1.61719 0.803,0.496 1.61664,1.00514 2.43164,1.61914 4.68421,3.34968 8.0977,8.18528 9.68555,13.7207 0.75105,4.58106 0.47757,9.27164 -0.80079,13.73438 -1.86499,6.51899 -4.03744,10.99546 -7.27343,14.93945 -4.16106,4.99207 -10.09616,8.17561 -16.55664,8.88086 -2.90333,0.40721 -5.83194,0.60759 -8.76368,0.59961 -5.3141,-0.0715 -10.61538,-0.54095 -15.85937,-1.4043 -0.27008,-0.0928 -0.55248,-0.14476 -0.83789,-0.15429 -0.744,0 -1.28203,0.46014 -1.58203,1.36914 -0.815,3.22799 -1.62188,6.55839 -2.42188,9.90039 -0.815,3.31799 -1.63164,6.66077 -2.43164,9.88476 l -0.0586,0.23633 c -0.224,0.921 -0.3436,1.38086 -0.9336,1.38086 -0.49659,-0.0473 -0.98075,-0.18291 -1.42968,-0.40039 -1.83,-0.413 -3.79141,-0.91973 -5.69141,-1.42773 -1.865,-0.484 -3.80238,-1.00625 -5.60937,-1.40625 -0.591,-0.201 -0.90863,-0.38944 -1.01563,-0.64844 -0.107,-0.259 -7.8e-4,-0.55575 0.19922,-0.96875 1.594,-6.75499 3.23686,-13.72165 5.25586,-20.18164 0.005,-0.1978 0.0244,-0.39496 0.0586,-0.58985 0.07,-0.448 0.11806,-0.74434 -0.46094,-1.02734 l -1.10937,-0.27148 c -2.822,-0.708 -5.75061,-1.4414 -8.97461,-2.15039 h -0.0137 v 0.0117 c -0.417,1.819 -0.92197,3.66037 -1.41797,5.44336 -0.496,1.783 -1.01602,3.62632 -1.41602,5.44532 -0.414,1.85399 -0.9334,3.73054 -1.4414,5.56054 -0.482,1.748 -0.98281,3.5549 -1.38281,5.33789 -0.047,0.095 -0.0819,0.19044 -0.12891,0.27344 -0.201,0.44 -0.31914,0.69922 -0.74414,0.69922 -0.25432,-0.0143 -0.50511,-0.0663 -0.74414,-0.1543 -3.944,-1.193 -7.95904,-1.99639 -11.83203,-2.77539 l -0.27344,-0.0586 c -0.591,-0.201 -0.90963,-0.40239 -1.01563,-0.65039 -0.0729,-0.3331 3.2e-4,-0.68148 0.20118,-0.95703 1.58199,-6.732 3.2229,-13.69337 5.2539,-20.19336 0.0173,-0.18525 0.0697,-0.36553 0.1543,-0.53125 0.15644,-0.34109 0.24088,-0.71076 0.24805,-1.08594 l -0.80079,-0.21289 c -8.86799,-2.303 -18.0428,-4.69883 -27.46679,-7.04883 0.413,-0.827 0.72034,-1.54881 1.02734,-2.25781 0.292,-0.685 0.59024,-1.3926 0.99024,-2.1836 1.59399,-3.57999 3.23712,-7.276 4.45312,-10.5 0.402,-1.21599 0.8155,-1.21679 1.9375,-1.21679 h 0.0703 c 2.91542,0.87231 5.88636,1.54702 8.89258,2.01953 0.52353,0.1395 1.06372,0.20653 1.60547,0.19922 2.27048,0.11445 4.23024,-1.57529 4.45117,-3.83789 l 0.4375,-1.71094 c 5,-19.68598 10.1884,-40.04491 14.90039,-60.46289 0.72056,-3.54089 -1.37842,-7.04683 -4.83984,-8.08398 -2.858,-0.957 -5.65621,-1.64146 -8.4082,-2.31446 -0.708,-0.178 -1.40485,-0.34253 -2.08985,-0.51953 -0.449,0 -0.75476,-0.11975 -0.88476,-0.34375 -0.12747,-0.27988 -0.10086,-0.60582 0.0703,-0.86133 0.626,-2.268 1.2418,-4.65508 1.8418,-6.95507 0.496,-1.88999 1.00372,-3.85079 2.21422,-4.53579 1.21049,-0.685 3.15973,-0.23491 5.03773,0.19009 2.184,0.496 4.44016,0.98747 6.66016,1.60547 2.21999,0.618 4.47187,1.11719 6.67187,1.61719 2.173,0.496 4.42844,1.01914 6.64844,1.61914 0.24566,0.0929 0.50505,0.14441 0.76758,0.15234 0.673,0 0.96895,-0.50714 1.25195,-1.36914 0.756,-3.224 1.52302,-6.36458 2.29102,-9.51758 0.85099,-3.51899 1.70078,-7.03906 2.55078,-10.66406 0.296,-0.862 0.59095,-1.37109 1.25195,-1.37109 z m 2.19531,45.29491 c -0.6555,5e-5 -0.96444,0.46317 -1.27344,1.38867 -2.05699,8.63799 -4.11403,16.86396 -6.58203,25.50195 -0.411,0.823 0.001,1.23354 0.82422,1.64454 1.645,0.41099 2.87844,0.82337 4.52344,1.23437 6.16999,0.823 11.51666,2.05664 18.09766,2.05664 1.52932,-0.14545 3.04333,-0.42185 4.52539,-0.82617 7.9142,-1.73833 11.85848,-10.66595 7.81445,-17.6875 -2.057,-3.7 -5.75699,-6.16946 -9.45899,-7.81445 -5.75899,-2.465 -11.51655,-3.69776 -17.68554,-5.34375 -0.3085,-0.10275 -0.56666,-0.15432 -0.78516,-0.1543 z m -8.18945,40.32422 c -0.52753,-8.5e-4 -0.60235,0.45156 -0.90235,1.35156 -0.81499,4.039 -2.01898,7.67585 -2.83398,11.71484 -1.606,5.66 -2.82341,11.30138 -4.44141,17.35938 0.30799,0.0426 0.59416,0.18296 0.81641,0.40039 6.45999,1.618 13.32065,3.63906 20.18164,4.03906 1.626,0.142 3.20782,0.23233 4.75781,0.23633 3.05308,0.0587 6.09218,-0.42739 8.97461,-1.43555 7.66,-2.41999 10.90094,-12.51657 6.46094,-18.97656 -2.019,-3.235 -5.25647,-5.25639 -8.48047,-7.27539 -7.27399,-4.039 -15.75308,-5.64372 -23.83008,-7.26172 -0.3015,-0.1015 -0.52728,-0.15206 -0.70312,-0.15234 z"
     sodipodi:nodetypes="cccscccccccccccccccccccccccccccccccccsccccccccccscccccsccccccccsccccccccccccccccccsccccccccccccccscccccccscccccccccssccccccccccs" /><path
     style="fill:#000000;fill-opacity:1;stroke:#ffffff;stroke-width:3.78;stroke-linecap:butt;stroke-linejoin:miter;stroke-dasharray:none;stroke-opacity:1"
     d="m 76.90346,291.93595 c 0.18116,-4.26214 2.92457,-7.43119 -2.14658,-10.70157 -5.07116,-3.27037 -10.3068,-2.11788 -12.23177,-1.69212 -1.92498,0.42576 -6.01202,5.27104 -7.1411,10.19531 -1.12906,4.92426 1.11958,9.98811 1.11958,9.98811 0,0 1.27438,0.70191 0.53197,-1.67659 -0.74241,-2.3785 -6.39463,-10.40289 -9.3058,-13.67881 -2.91116,-3.27591 -5.24086,-4.38095 -4.23283,-6.1131 1.00802,-1.73216 1.58607,-10.58647 1.4269,-11.30609 -0.15916,-0.71963 -1.52579,-4.74987 -3.75285,-4.27776 -2.22707,0.47209 -2.16547,-0.21416 -2.29755,0.48768 -0.13207,0.70188 1.24632,2.96918 1.37295,4.34776 0.12664,1.37856 0.71661,6.97357 -0.18972,7.84053 -0.90633,0.86697 -1.77128,1.77007 -2.68534,0.94243 -0.91407,-0.82763 -2.78826,-2.19121 -3.90009,-3.97358 -13.95276,-12.54279 -17.15502,-17.75593 -4.35965,-3.17255 1.12586,1.4113 1.82073,2.32324 1.8052,3.7506 -0.0155,1.42737 -0.62831,2.51676 2.04359,3.74946 -26.0391098,14.22099 -1.62174,-22.8182 7.62909,16.84405 1.24244,1.11684 -1.09434,3.39018 1.40078,8.78915 2.49511,5.39896 -3.47453,6.6094 3.57639,11.69398 7.05092,5.08458 15.77089,3.23106 20.31183,-2.48209 4.54093,-5.71314 11.025,-19.55486 11.025,-19.55486 z"
     id="path42693"
     sodipodi:nodetypes="cssscsssssssssccsccssscc" /><path
     id="path39035"
     style="opacity:1;fill:#000000;fill-opacity:1;stroke:#ffffff;stroke-width:3.78;stroke-linecap:butt;stroke-linejoin:miter;stroke-dasharray:none;stroke-opacity:1"
     d="m 179.3723,1.9052472 c -9.36613,-0.447321 -12.25665,8.5700548 -13.66602,10.0703128 -1.40936,1.500257 -8.45632,1.490053 -20.36523,0.75 -11.90891,-0.740053 -30.30314,11.417659 -33.63281,15.910156 -3.32967,4.492498 -23.1543,20.457031 -23.1543,20.457031 l -8.74609,9.871094 c 0,0 -4.24916,4.455758 -5.6875,7.490235 -0.63628,1.342345 -1.16253,3.143567 -1.69727,5.730468 -4.05317,5.461259 -13.93084,18.709329 -16.75781,21.199219 -3.39932,2.993993 -25.76933,29.313237 -29.88086,36.380847 -4.11153,7.06762 -24.5330298,37.58255 -23.8789098,66.5625 0.65412,28.97994 8.8849498,68.13075 20.1660198,82.04102 11.28106,13.91027 56.47912,41.58088 71.85156,44.08007 15.37244,2.49921 52.37681,18.48961 54.38477,18.88282 2.00795,0.39322 3.04209,-1.66086 1.875,-3.72266 -1.1671,-2.0618 -18.81569,-15.80996 -25.96485,-20.29297 -7.14915,-4.483 -24.65657,-13.25376 -30.33398,-17.95703 -5.67741,-4.70325 -18.18948,-18.13252 -21.2461,-24.92773 -3.05661,-6.79523 -8.82306,-11.07793 -8.14062,-27.27344 0.68244,-16.19553 7.80807,-31.92976 8.46875,-34.49805 0.66067,-2.56828 2.06759,-16.96632 0.36719,-23.5664 -1.7004,-6.60008 -3.90055,-22.02817 0.57617,-26.69532 4.47672,-4.66714 17.71614,-13.5936 25.11133,-24.27734 3.77733,-5.55545 5.82528,-10.95141 10.15053,-14.17963 1.55535,-6.30438 14.51021,-14.63853 18.87486,-18.65239 4.36464,-4.01386 24.09587,-9.895088 26.17382,-10.148437 2.07796,-0.25335 24.00217,-9.145362 29,-13.136719 4.99783,-3.991358 23.03776,-9.095366 34.41602,-11.980469 11.37826,-2.885103 25.76467,-10.598257 30.01953,-14.183594 4.25487,-3.585337 -1.00976,-6.384766 -1.00976,-6.384766 0,0 1.78067,-6.120185 2.42382,-8.49414 0.64316,-2.373954 -6.2956,-8.750431 -9.60937,-11.681641 -3.31377,-2.931209 -23.88005,-5.120756 -33.50781,-7.355468 -9.62777,-2.234711 -5.58765,-9.707583 -8.125,-14.5527358 -2.53736,-4.845151 -9.08896,-5.017524 -18.45508,-5.464843 z"
     sodipodi:nodetypes="ssssccscssssssssssssssccssssscsssss" /><path
     style="fill:#ffffff;fill-opacity:1;stroke:none;stroke-width:1px;stroke-linecap:butt;stroke-linejoin:miter;stroke-opacity:1"
     d="m 165.00802,46.989818 c 0,0 8.07372,-5.053257 16.36951,-5.957031 8.29579,-0.903773 9.94916,-0.945144 9.94916,-0.945144 0,0 4.67928,8.699303 2.14978,13.628538 -2.5295,4.929236 -7.21763,11.317843 -14.24835,10.251175 -7.03072,-1.066668 -12.13494,-4.712838 -12.93672,-7.313104 -0.80179,-2.600267 -1.33571,-5.991805 -1.25856,-6.969953 0.0771,-0.978148 -0.0248,-2.694481 -0.0248,-2.694481 z"
     id="path41223" /><path
     style="fill:#000000;fill-opacity:1;stroke:#000000;stroke-width:1px;stroke-linecap:butt;stroke-linejoin:miter;stroke-opacity:1"
     d="m 80.6805,137.42206 c 4.12245,-1.09731 6.62426,-4.46037 10.91261,-0.21513 4.28835,4.24523 4.29373,9.60621 4.29373,11.57771 0,1.9715 -3.84832,7.00846 -8.41256,9.17432 -4.56424,2.16585 -17.34822,4.40176 -17.34822,4.40176 0,0 6.39346,-4.43064 8.87616,-4.21941 2.4827,0.21124 11.53838,3.99717 15.36568,6.13218 3.8273,2.13501 5.40937,4.1711 6.88296,2.81279 1.47359,-1.35831 9.99413,-3.83486 10.73115,-3.83486 0.73702,0 4.96729,0.46402 4.98726,2.74049 0.02,2.27647 0.67677,2.06812 0.02,2.34865 -0.65679,0.28053 -3.16827,-0.5757 -4.54165,-0.40163 -1.37339,0.17406 -6.96377,0.80629 -7.61455,1.87846 -0.65078,1.07217 -1.34579,2.11174 -0.34028,2.8255 1.00551,0.71377 2.74166,2.24926 4.72207,2.94994 1.98041,0.70068 12.36084,4.32429 13.46622,6.25097 1.10538,1.92667 3.69906,4.15696 1.66677,5.50257 -2.03229,1.3456 -3.07112,1.88677 -5.12367,-0.84456 -2.05255,-2.73134 -4.34901,-6.54283 -5.97014,-7.33734 -1.62113,-0.79451 -2.66161,-1.27605 -4.05194,-0.95264 -1.39033,0.32341 -2.32169,1.157 -4.10232,-1.18564 -1.78063,-2.34263 -7.19851,-1.1375 -5.53206,1.70864 1.66645,2.84614 2.75586,6.86669 7.27699,10.55806 4.52112,3.69136 4.92269,4.9499 4.92269,7.60785 0,2.65794 2.56705,5.16386 0.23874,6.32378 -2.32831,1.15993 -3.60432,-1.90808 -4.2613,-3.31135 -0.65699,-1.40327 -0.3377,-5.50979 -0.6976,-6.28554 -0.35989,-0.77575 -6.25874,-4.60914 -7.68949,-7.23315 -1.43075,-2.62401 -2.8567,-6.50816 -4.43856,-7.23001 -1.58186,-0.72185 -0.60061,6.61628 -0.17436,9.1702 0.42625,2.55391 0.87969,1.83375 3.01779,7.35419 2.13809,5.52045 5.14962,10.64823 2.94989,13.11842 -2.19974,2.47018 -2.74107,2.60854 -3.4478,-0.26064 -0.70674,-2.86919 -0.60182,-1.13968 -1.72425,-7.10225 -1.12244,-5.96258 -4.10354,-9.80055 -4.58575,-12.73724 -0.4822,-2.93668 0.85208,-5.80804 -0.43474,-8.34293 -1.28681,-2.53489 -1.68978,-4.37064 -3.67956,1.42882 -1.98979,5.79945 1.52024,9.01949 -0.49549,10.78477 -2.01572,1.76528 -4.43514,5.80094 -3.11825,8.93489 1.3169,3.13395 -1.21807,4.66038 -1.21807,4.66038 0,0 -1.33831,-4.617 -1.41054,-6.7488 -0.0722,-2.13181 0.71551,-7.38868 1.63176,-8.70109 0.91625,-1.31241 -0.13768,-6.3793 0.7487,-9.30066 0.88638,-2.92137 1.73626,-4.2321 0.37746,-5.20403 -1.35879,-0.97194 0.57579,-1.20314 -5.23461,-2.47344 -5.8104,-1.27029 -5.70309,4.81989 -12.19038,-0.9666 -6.48729,-5.78649 -6.56065,-14.70098 -1.96296,-20.36855 4.59769,-5.66757 16.7125,-14.98785 16.7125,-14.98785 z"
     id="path41963"
     sodipodi:nodetypes="cssscsssssssssssssssssssssssssssssssssscsssssssc" /><path
     style="fill:#000000;fill-opacity:1;stroke:#000000;stroke-width:1px;stroke-linecap:butt;stroke-linejoin:miter;stroke-opacity:1"
     d="m 71.64312,294.74468 c -0.18116,-4.26214 -2.92457,-7.43119 2.14658,-10.70157 5.07116,-3.27037 10.3068,-2.11788 12.23177,-1.69212 1.92498,0.42576 6.01202,5.27104 7.1411,10.19531 1.12906,4.92426 0.55143,17.88944 0.55143,17.88944 0,0 -2.94538,-7.19942 -2.20298,-9.57792 0.74241,-2.3785 6.39464,-10.40289 9.3058,-13.67881 2.91115,-3.27591 2.64846,-2.65429 1.64043,-4.38644 -1.00803,-1.73216 0.37331,-10.04474 0.53247,-10.76436 0.15917,-0.71963 3.07402,-5.72751 5.30108,-5.2554 2.22707,0.47209 2.16547,-0.21416 2.29755,0.48768 0.13207,0.70188 -4.42918,4.75954 -4.55581,6.13812 -0.12664,1.37856 -1.04135,5.61912 -0.13502,6.48608 0.90633,0.86697 4.36368,0.0434 5.27774,-0.78423 0.91407,-0.82763 2.78826,-2.19121 3.90009,-3.97358 1.11183,-1.78236 2.59802,-5.62667 4.71795,-6.28988 2.11992,-0.66323 3.03737,-3.36744 3.91234,-1.09252 -1.66682,8.33736 -5.18377,-0.01 -5.32682,9.15361 0.0155,1.42737 -0.12071,1.3236 -2.79261,2.5563 -2.67189,1.23271 -2.66523,6.78301 0.47364,5.77052 3.13886,-1.01249 3.70038,-0.47694 8.28102,-4.09421 4.58062,-3.61727 4.57538,-6.29983 7.17061,-5.72583 2.59522,0.574 4.71402,-1.96432 5.85599,0.37285 1.23005,2.51746 -3.01704,3.35721 -4.52907,3.69564 -1.51204,0.33844 -3.38617,2.21182 -4.22134,2.3957 -0.83517,0.18388 -2.25259,4.38471 -5.12366,5.21502 -2.87106,0.83031 -6.9715,1.38381 -8.01793,2.77245 -1.04643,1.38865 2.41649,2.03426 5.0022,2.1696 2.5857,0.13534 2.26435,0.65098 7.27733,-2.4981 3.559,-2.23572 6.10402,-6.55718 8.04087,-3.87592 1.93685,2.68128 -1.35648,3.29842 -3.62812,5.1882 -1.91661,1.59443 -0.64487,1.25158 -3.14965,2.32412 -2.05713,0.88086 -4.44211,1.38385 -7.41364,1.22048 -2.97152,-0.16337 -3.15462,-0.68292 -5.90759,0.0261 -2.75297,0.70902 -4.58101,1.62275 1.49563,2.43973 3.74917,0.50405 5.1212,-0.22196 8.09992,-0.66381 2.65043,-0.39316 3.55124,-2.29081 6.89563,-2.89983 3.34439,-0.60902 1.63756,-0.85611 3.84635,-0.83882 0,0 -2.55231,3.66095 -4.74598,4.01015 -2.10651,0.33533 -6.66714,2.28081 -8.19788,2.74853 -1.78986,0.54689 -2.91605,0.35351 -6.09787,0.0803 -3.04169,-0.26115 -5.64837,0.10652 -6.89081,1.22335 -1.24244,1.11684 -1.0504,-0.82203 -3.54552,4.57694 -2.49511,5.39896 3.47453,6.6094 -3.57639,11.69398 -7.05091,5.08458 -15.77089,3.23106 -20.31183,-2.48209 -4.54093,-5.71314 -11.025,-19.55486 -11.025,-19.55486 z"
     id="path42691"
     sodipodi:nodetypes="cssscsssssssssssccssssssssssssssssssscssssssscc" /></svg>
