<?xml version="1.0" encoding="UTF-8" standalone="no"?>
<svg
   width="206"
   height="206"
   viewBox="0 0 206 206"
   version="1.1"
   id="svg36465"
   sodipodi:docname="profilbild_contestant.svg"
   xml:space="preserve"
   inkscape:version="1.2.2 (b0a8486, 2022-12-01)"
   xmlns:inkscape="http://www.inkscape.org/namespaces/inkscape"
   xmlns:sodipodi="http://sodipodi.sourceforge.net/DTD/sodipodi-0.dtd"
   xmlns="http://www.w3.org/2000/svg"
   xmlns:svg="http://www.w3.org/2000/svg"><defs
     id="defs36469" /><sodipodi:namedview
     id="namedview36467"
     pagecolor="#505050"
     bordercolor="#ffffff"
     borderopacity="1"
     inkscape:showpageshadow="0"
     inkscape:pageopacity="0"
     inkscape:pagecheckerboard="1"
     inkscape:deskcolor="#505050"
     showgrid="false"
     inkscape:zoom="2.0330618"
     inkscape:cx="90.749823"
     inkscape:cy="124.68878"
     inkscape:window-width="1440"
     inkscape:window-height="847"
     inkscape:window-x="0"
     inkscape:window-y="25"
     inkscape:window-maximized="1"
     inkscape:current-layer="svg36465" /><circle
     id="Ellipse_267"
     data-name="Ellipse 267"
     cx="103"
     cy="103"
     r="103"
     fill="#ffffff"
     style="fill:#ffffff;fill-opacity:1" /><path
     id="path39035"
     style="opacity:1;fill:#009a95;fill-opacity:1;stroke:#ffffff;stroke-width:3.78;stroke-linecap:butt;stroke-linejoin:miter;stroke-dasharray:none;stroke-opacity:1"
     d="m 94.201721,71.887057 c -8.51063,3.93613 -14.51668,6.55927 -15.04607,12.00293 -0.5294,5.44364 -2.09777,13.41925 -10.1788,19.110013 -8.08102,5.69074 -18.19309,12.88236 -20.161555,16.84444 -1.968477,3.96209 -6.000533,12.47964 -4.511965,14.43756 1.488559,1.95793 5.439756,6.95949 5.439756,6.95949 0,0 -3.825732,4.5735 1.464991,6.29593 5.290713,1.72241 21.521613,3.46031 33.149723,1.85549 11.6281,-1.60481 30.263389,-3.65832 36.395209,-1.83902 6.13184,1.81928 29.79063,1.81533 31.81137,1.26878 2.02062,-0.54695 22.51544,-2.5158 28.069,-0.43758 2.61098,0.97707 7.36092,2.15364 12.03584,3.64219 10.65701,-20.8903 13.86607,-44.7919 9.09664,-67.753373 l -5.66758,-2.80954 c 0,0 -24.37255,-7.33904 -29.14706,-10.24991 -4.77451,-2.91088 -26.39027,-7.26026 -37.14704,-2.09679 -10.75677,5.16349 -17.28281,7.82259 -19.15284,6.96234 -1.87004,-0.86024 -7.93898,-8.12909 -16.449619,-4.19295 z"
     inkscape:transform-center-x="-16.893705"
     inkscape:transform-center-y="0.4756876"
     sodipodi:nodetypes="ssssscssscscccssss" /><path
     style="fill:#ffffff;fill-opacity:1;stroke:none;stroke-width:1px;stroke-linecap:butt;stroke-linejoin:miter;stroke-opacity:1"
     d="m 124.46392,108.26262 c 0,0 -9.38128,-1.64674 -17.40815,0.63501 -8.026869,2.28175 -9.574459,2.86508 -9.574459,2.86508 0,0 -1.06499,9.82036 3.132269,13.43679 4.19728,3.61644 10.9435,7.77353 17.05724,4.14159 6.11375,-3.63194 9.47246,-8.92974 9.23771,-11.64066 -0.23474,-2.71093 -1.01521,-6.05435 -1.45448,-6.93172 -0.43923,-0.87738 -0.99015,-2.50608 -0.99015,-2.50608 z"
     id="path41223"
     inkscape:transform-center-x="-5.084571"
     inkscape:transform-center-y="10.318152" /></svg>
